<mxfile host="Electron" agent="Mozilla/5.0 (Macintosh; Intel Mac OS X 10_15_7) AppleWebKit/537.36 (KHTML, like Gecko) draw.io/25.0.2 Chrome/128.0.6613.186 Electron/32.2.5 Safari/537.36" version="25.0.2" pages="3">
  <diagram name="ES" id="Xvk-Zwp9BR8lHev4Ja6_">
    <mxGraphModel dx="2537" dy="2683" grid="1" gridSize="10" guides="1" tooltips="1" connect="1" arrows="1" fold="1" page="1" pageScale="1" pageWidth="1169" pageHeight="827" math="0" shadow="0">
      <root>
        <mxCell id="0" />
        <mxCell id="1" parent="0" />
        <mxCell id="ku9uCke8i7dfiXiMKxOJ-129" value="Менеджмент платформы" style="swimlane;whiteSpace=wrap;html=1;strokeColor=none;swimlaneLine=0;fillColor=#F5F5F5;gradientColor=none;swimlaneFillColor=#f9f9f9;fontStyle=1;fontColor=#4D4D4D;glass=0;shadow=0;" vertex="1" parent="1">
          <mxGeometry x="-770" y="-1470" width="789" height="950" as="geometry">
            <mxRectangle x="488" y="-400" width="130" height="26" as="alternateBounds" />
          </mxGeometry>
        </mxCell>
        <mxCell id="ku9uCke8i7dfiXiMKxOJ-18" value="Менеджер" style="shape=note;whiteSpace=wrap;html=1;backgroundOutline=1;darkOpacity=0.05;fillColor=#FEE750;strokeColor=none;fontSize=18;fontStyle=0;rotation=0;shadow=1;" vertex="1" parent="ku9uCke8i7dfiXiMKxOJ-129">
          <mxGeometry x="48" y="122" width="120" height="120" as="geometry" />
        </mxCell>
        <mxCell id="ku9uCke8i7dfiXiMKxOJ-22" value="Задал тип услуги" style="shape=note;whiteSpace=wrap;html=1;backgroundOutline=1;darkOpacity=0.05;fillColor=#feae57;strokeColor=none;fontSize=16;fontStyle=0;rotation=0;shadow=1;" vertex="1" parent="ku9uCke8i7dfiXiMKxOJ-129">
          <mxGeometry x="368" y="132" width="120" height="120" as="geometry" />
        </mxCell>
        <mxCell id="ku9uCke8i7dfiXiMKxOJ-82" value="Задать новый тип услуги" style="shape=note;whiteSpace=wrap;html=1;backgroundOutline=1;darkOpacity=0.05;fillColor=#a7c5fc;strokeColor=none;fontSize=16;fontStyle=0;rotation=0;shadow=1;" vertex="1" parent="ku9uCke8i7dfiXiMKxOJ-129">
          <mxGeometry x="218" y="132" width="120" height="120" as="geometry" />
        </mxCell>
        <mxCell id="ku9uCke8i7dfiXiMKxOJ-40" value="Проверил качество выполненного заказа" style="shape=note;whiteSpace=wrap;html=1;backgroundOutline=1;darkOpacity=0.05;fillColor=#feae57;strokeColor=none;fontSize=16;fontStyle=0;rotation=0;shadow=1;" vertex="1" parent="ku9uCke8i7dfiXiMKxOJ-129">
          <mxGeometry x="368" y="270" width="120" height="120" as="geometry" />
        </mxCell>
        <mxCell id="ku9uCke8i7dfiXiMKxOJ-89" value="Менеджер" style="shape=note;whiteSpace=wrap;html=1;backgroundOutline=1;darkOpacity=0.05;fillColor=#FEE750;strokeColor=none;fontSize=18;fontStyle=0;rotation=0;shadow=1;" vertex="1" parent="ku9uCke8i7dfiXiMKxOJ-129">
          <mxGeometry x="48" y="270" width="120" height="120" as="geometry" />
        </mxCell>
        <mxCell id="ku9uCke8i7dfiXiMKxOJ-90" value="Проверить качество выполненного заказа" style="shape=note;whiteSpace=wrap;html=1;backgroundOutline=1;darkOpacity=0.05;fillColor=#a7c5fc;strokeColor=none;fontSize=16;fontStyle=0;rotation=0;shadow=1;" vertex="1" parent="ku9uCke8i7dfiXiMKxOJ-129">
          <mxGeometry x="218" y="270" width="120" height="120" as="geometry" />
        </mxCell>
        <mxCell id="ku9uCke8i7dfiXiMKxOJ-30" value="Сконфигурировал&amp;nbsp;&lt;div&gt;набор тестов&lt;/div&gt;" style="shape=note;whiteSpace=wrap;html=1;backgroundOutline=1;darkOpacity=0.05;fillColor=#feae57;strokeColor=none;fontSize=16;fontStyle=0;rotation=0;shadow=1;" vertex="1" parent="ku9uCke8i7dfiXiMKxOJ-129">
          <mxGeometry x="380" y="575" width="120" height="120" as="geometry" />
        </mxCell>
        <mxCell id="ku9uCke8i7dfiXiMKxOJ-84" value="Сконфигурировать набор тестов" style="shape=note;whiteSpace=wrap;html=1;backgroundOutline=1;darkOpacity=0.05;fillColor=#a7c5fc;strokeColor=none;fontSize=16;fontStyle=0;rotation=0;shadow=1;" vertex="1" parent="ku9uCke8i7dfiXiMKxOJ-129">
          <mxGeometry x="230" y="575" width="120" height="120" as="geometry" />
        </mxCell>
        <mxCell id="ku9uCke8i7dfiXiMKxOJ-85" value="Менеджер" style="shape=note;whiteSpace=wrap;html=1;backgroundOutline=1;darkOpacity=0.05;fillColor=#FEE750;strokeColor=none;fontSize=18;fontStyle=0;rotation=0;shadow=1;" vertex="1" parent="ku9uCke8i7dfiXiMKxOJ-129">
          <mxGeometry x="70" y="575" width="120" height="120" as="geometry" />
        </mxCell>
        <mxCell id="ku9uCke8i7dfiXiMKxOJ-123" value="Оформление заказа" style="swimlane;whiteSpace=wrap;html=1;strokeColor=none;swimlaneLine=0;fillColor=#F5F5F5;gradientColor=none;swimlaneFillColor=#f9f9f9;fontStyle=1;fontColor=#4D4D4D;glass=0;shadow=0;" vertex="1" parent="1">
          <mxGeometry x="1660" y="-1570" width="1160" height="730" as="geometry">
            <mxRectangle x="488" y="-400" width="130" height="26" as="alternateBounds" />
          </mxGeometry>
        </mxCell>
        <mxCell id="ku9uCke8i7dfiXiMKxOJ-17" value="Клиент" style="shape=note;whiteSpace=wrap;html=1;backgroundOutline=1;darkOpacity=0.05;fillColor=#FEE750;strokeColor=none;fontSize=18;fontStyle=0;rotation=0;shadow=1;" vertex="1" parent="ku9uCke8i7dfiXiMKxOJ-123">
          <mxGeometry x="20" y="70" width="120" height="120" as="geometry" />
        </mxCell>
        <mxCell id="ku9uCke8i7dfiXiMKxOJ-21" value="Запросил помощь" style="shape=note;whiteSpace=wrap;html=1;backgroundOutline=1;darkOpacity=0.05;fillColor=#feae57;strokeColor=none;fontSize=16;fontStyle=0;rotation=0;shadow=1;" vertex="1" parent="ku9uCke8i7dfiXiMKxOJ-123">
          <mxGeometry x="340" y="70" width="120" height="120" as="geometry" />
        </mxCell>
        <mxCell id="ku9uCke8i7dfiXiMKxOJ-65" value="Запросить помощь" style="shape=note;whiteSpace=wrap;html=1;backgroundOutline=1;darkOpacity=0.05;fillColor=#a7c5fc;strokeColor=none;fontSize=16;fontStyle=0;rotation=0;shadow=1;" vertex="1" parent="ku9uCke8i7dfiXiMKxOJ-123">
          <mxGeometry x="170" y="70" width="120" height="120" as="geometry" />
        </mxCell>
        <mxCell id="ku9uCke8i7dfiXiMKxOJ-124" value="Сбор заказа для воркера" style="swimlane;whiteSpace=wrap;html=1;strokeColor=none;swimlaneLine=0;fillColor=#F5F5F5;gradientColor=none;swimlaneFillColor=#f9f9f9;fontStyle=1;fontColor=#4D4D4D;glass=0;shadow=0;" vertex="1" parent="1">
          <mxGeometry x="3220" y="-1550" width="1240" height="750" as="geometry">
            <mxRectangle x="488" y="-400" width="130" height="26" as="alternateBounds" />
          </mxGeometry>
        </mxCell>
        <mxCell id="ku9uCke8i7dfiXiMKxOJ-20" value="Складской сотрудник" style="shape=note;whiteSpace=wrap;html=1;backgroundOutline=1;darkOpacity=0.05;fillColor=#FEE750;strokeColor=none;fontSize=18;fontStyle=0;rotation=0;shadow=1;" vertex="1" parent="ku9uCke8i7dfiXiMKxOJ-124">
          <mxGeometry x="30" y="280" width="120" height="120" as="geometry" />
        </mxCell>
        <mxCell id="ku9uCke8i7dfiXiMKxOJ-37" value="Подрядчик с печеньем" style="shape=note;whiteSpace=wrap;html=1;backgroundOutline=1;darkOpacity=0.05;fillColor=#FFB3C5;strokeColor=none;fontSize=16;fontStyle=0;rotation=0;shadow=1;" vertex="1" parent="ku9uCke8i7dfiXiMKxOJ-124">
          <mxGeometry x="445" y="280" width="120" height="120" as="geometry" />
        </mxCell>
        <mxCell id="ku9uCke8i7dfiXiMKxOJ-94" value="Заказать печенье" style="shape=note;whiteSpace=wrap;html=1;backgroundOutline=1;darkOpacity=0.05;fillColor=#a7c5fc;strokeColor=none;fontSize=16;fontStyle=0;rotation=0;shadow=1;" vertex="1" parent="ku9uCke8i7dfiXiMKxOJ-124">
          <mxGeometry x="215" y="280" width="120" height="120" as="geometry" />
        </mxCell>
        <mxCell id="ku9uCke8i7dfiXiMKxOJ-95" style="edgeStyle=orthogonalEdgeStyle;rounded=0;orthogonalLoop=1;jettySize=auto;html=1;exitX=0;exitY=0;exitDx=120;exitDy=75;exitPerimeter=0;entryX=0;entryY=0.5;entryDx=0;entryDy=0;entryPerimeter=0;" edge="1" parent="ku9uCke8i7dfiXiMKxOJ-124" source="ku9uCke8i7dfiXiMKxOJ-94" target="ku9uCke8i7dfiXiMKxOJ-37">
          <mxGeometry relative="1" as="geometry" />
        </mxCell>
        <mxCell id="ku9uCke8i7dfiXiMKxOJ-35" value="Собрал заказ" style="shape=note;whiteSpace=wrap;html=1;backgroundOutline=1;darkOpacity=0.05;fillColor=#feae57;strokeColor=none;fontSize=16;fontStyle=0;rotation=0;shadow=1;" vertex="1" parent="ku9uCke8i7dfiXiMKxOJ-124">
          <mxGeometry x="423" y="430" width="120" height="120" as="geometry" />
        </mxCell>
        <mxCell id="ku9uCke8i7dfiXiMKxOJ-36" value="Выдал заказ" style="shape=note;whiteSpace=wrap;html=1;backgroundOutline=1;darkOpacity=0.05;fillColor=#feae57;strokeColor=none;fontSize=16;fontStyle=0;rotation=0;shadow=1;" vertex="1" parent="ku9uCke8i7dfiXiMKxOJ-124">
          <mxGeometry x="423" y="590" width="120" height="120" as="geometry" />
        </mxCell>
        <mxCell id="ku9uCke8i7dfiXiMKxOJ-96" value="Складской сотрудник" style="shape=note;whiteSpace=wrap;html=1;backgroundOutline=1;darkOpacity=0.05;fillColor=#FEE750;strokeColor=none;fontSize=18;fontStyle=0;rotation=0;shadow=1;" vertex="1" parent="ku9uCke8i7dfiXiMKxOJ-124">
          <mxGeometry x="34" y="420" width="120" height="120" as="geometry" />
        </mxCell>
        <mxCell id="ku9uCke8i7dfiXiMKxOJ-97" value="Собрать заказ" style="shape=note;whiteSpace=wrap;html=1;backgroundOutline=1;darkOpacity=0.05;fillColor=#a7c5fc;strokeColor=none;fontSize=16;fontStyle=0;rotation=0;shadow=1;" vertex="1" parent="ku9uCke8i7dfiXiMKxOJ-124">
          <mxGeometry x="219" y="430" width="120" height="120" as="geometry" />
        </mxCell>
        <mxCell id="ku9uCke8i7dfiXiMKxOJ-98" value="Складской сотрудник" style="shape=note;whiteSpace=wrap;html=1;backgroundOutline=1;darkOpacity=0.05;fillColor=#FEE750;strokeColor=none;fontSize=18;fontStyle=0;rotation=0;shadow=1;" vertex="1" parent="ku9uCke8i7dfiXiMKxOJ-124">
          <mxGeometry x="39" y="580" width="120" height="120" as="geometry" />
        </mxCell>
        <mxCell id="ku9uCke8i7dfiXiMKxOJ-99" value="Выдать заказ воркеру" style="shape=note;whiteSpace=wrap;html=1;backgroundOutline=1;darkOpacity=0.05;fillColor=#a7c5fc;strokeColor=none;fontSize=16;fontStyle=0;rotation=0;shadow=1;" vertex="1" parent="ku9uCke8i7dfiXiMKxOJ-124">
          <mxGeometry x="224" y="590" width="120" height="120" as="geometry" />
        </mxCell>
        <mxCell id="ku9uCke8i7dfiXiMKxOJ-33" value="Сотрудник склада уведомлен" style="shape=note;whiteSpace=wrap;html=1;backgroundOutline=1;darkOpacity=0.05;fillColor=#feae57;strokeColor=none;fontSize=16;fontStyle=0;rotation=0;shadow=1;" vertex="1" parent="ku9uCke8i7dfiXiMKxOJ-124">
          <mxGeometry x="185" y="90" width="120" height="120" as="geometry" />
        </mxCell>
        <mxCell id="ku9uCke8i7dfiXiMKxOJ-93" value="Назначить сборку на свободного сотрудника" style="shape=note;whiteSpace=wrap;html=1;backgroundOutline=1;darkOpacity=0.05;fillColor=#a7c5fc;strokeColor=none;fontSize=16;fontStyle=0;rotation=0;shadow=1;" vertex="1" parent="ku9uCke8i7dfiXiMKxOJ-124">
          <mxGeometry x="50" y="90" width="120" height="120" as="geometry" />
        </mxCell>
        <mxCell id="ku9uCke8i7dfiXiMKxOJ-125" value="Выполнение заказа&lt;span style=&quot;color: rgba(0, 0, 0, 0); font-family: monospace; font-size: 0px; font-weight: 400; text-align: start; text-wrap: nowrap;&quot;&gt;%3CmxGraphModel%3E%3Croot%3E%3CmxCell%20id%3D%220%22%2F%3E%3CmxCell%20id%3D%221%22%20parent%3D%220%22%2F%3E%3CmxCell%20id%3D%222%22%20value%3D%22%D0%A1%D0%B1%D0%BE%D1%80%20%D0%B7%D0%B0%D0%BA%D0%B0%D0%B7%D0%B0%20%D0%B4%D0%BB%D1%8F%20%D0%B2%D0%BE%D1%80%D0%BA%D0%B5%D1%80%D0%B0%22%20style%3D%22swimlane%3BwhiteSpace%3Dwrap%3Bhtml%3D1%3BstrokeColor%3Dnone%3BswimlaneLine%3D0%3BfillColor%3D%23F5F5F5%3BgradientColor%3Dnone%3BswimlaneFillColor%3D%23f9f9f9%3BfontStyle%3D1%3BfontColor%3D%234D4D4D%3Bglass%3D0%3Bshadow%3D0%3B%22%20vertex%3D%221%22%20parent%3D%221%22%3E%3CmxGeometry%20x%3D%22-780%22%20y%3D%222000%22%20width%3D%22634%22%20height%3D%22492%22%20as%3D%22geometry%22%3E%3CmxRectangle%20x%3D%22488%22%20y%3D%22-400%22%20width%3D%22130%22%20height%3D%2226%22%20as%3D%22alternateBounds%22%2F%3E%3C%2FmxGeometry%3E%3C%2FmxCell%3E%3C%2Froot%3E%3C%2FmxGraphModel%3E&lt;/span&gt;" style="swimlane;whiteSpace=wrap;html=1;strokeColor=none;swimlaneLine=0;fillColor=#F5F5F5;gradientColor=none;swimlaneFillColor=#f9f9f9;fontStyle=1;fontColor=#4D4D4D;glass=0;shadow=0;" vertex="1" parent="1">
          <mxGeometry x="268" y="-590" width="634" height="492" as="geometry">
            <mxRectangle x="488" y="-400" width="130" height="26" as="alternateBounds" />
          </mxGeometry>
        </mxCell>
        <mxCell id="ku9uCke8i7dfiXiMKxOJ-25" value="Отметился в приложении" style="shape=note;whiteSpace=wrap;html=1;backgroundOutline=1;darkOpacity=0.05;fillColor=#feae57;strokeColor=none;fontSize=16;fontStyle=0;rotation=0;shadow=1;" vertex="1" parent="ku9uCke8i7dfiXiMKxOJ-125">
          <mxGeometry x="350" y="80" width="120" height="120" as="geometry" />
        </mxCell>
        <mxCell id="ku9uCke8i7dfiXiMKxOJ-78" value="Воркер" style="shape=note;whiteSpace=wrap;html=1;backgroundOutline=1;darkOpacity=0.05;fillColor=#FEE750;strokeColor=none;fontSize=18;fontStyle=0;rotation=0;shadow=1;" vertex="1" parent="ku9uCke8i7dfiXiMKxOJ-125">
          <mxGeometry x="30" y="60" width="120" height="120" as="geometry" />
        </mxCell>
        <mxCell id="ku9uCke8i7dfiXiMKxOJ-79" value="Прийти на заказ" style="shape=note;whiteSpace=wrap;html=1;backgroundOutline=1;darkOpacity=0.05;fillColor=#a7c5fc;strokeColor=none;fontSize=16;fontStyle=0;rotation=0;shadow=1;" vertex="1" parent="ku9uCke8i7dfiXiMKxOJ-125">
          <mxGeometry x="180" y="70" width="120" height="120" as="geometry" />
        </mxCell>
        <mxCell id="ku9uCke8i7dfiXiMKxOJ-26" value="Прислал фото отчета" style="shape=note;whiteSpace=wrap;html=1;backgroundOutline=1;darkOpacity=0.05;fillColor=#feae57;strokeColor=none;fontSize=16;fontStyle=0;rotation=0;shadow=1;" vertex="1" parent="ku9uCke8i7dfiXiMKxOJ-125">
          <mxGeometry x="360" y="210" width="120" height="120" as="geometry" />
        </mxCell>
        <mxCell id="ku9uCke8i7dfiXiMKxOJ-80" value="Воркер" style="shape=note;whiteSpace=wrap;html=1;backgroundOutline=1;darkOpacity=0.05;fillColor=#FEE750;strokeColor=none;fontSize=18;fontStyle=0;rotation=0;shadow=1;" vertex="1" parent="ku9uCke8i7dfiXiMKxOJ-125">
          <mxGeometry x="30" y="210" width="120" height="120" as="geometry" />
        </mxCell>
        <mxCell id="ku9uCke8i7dfiXiMKxOJ-81" value="Отправить фото сделанного заказа" style="shape=note;whiteSpace=wrap;html=1;backgroundOutline=1;darkOpacity=0.05;fillColor=#a7c5fc;strokeColor=none;fontSize=16;fontStyle=0;rotation=0;shadow=1;" vertex="1" parent="ku9uCke8i7dfiXiMKxOJ-125">
          <mxGeometry x="190" y="210" width="120" height="120" as="geometry" />
        </mxCell>
        <mxCell id="ku9uCke8i7dfiXiMKxOJ-126" value="Тотализатор" style="swimlane;whiteSpace=wrap;html=1;strokeColor=none;swimlaneLine=0;fillColor=#F5F5F5;gradientColor=none;swimlaneFillColor=#f9f9f9;fontStyle=1;fontColor=#4D4D4D;glass=0;shadow=0;" vertex="1" parent="1">
          <mxGeometry x="1310" y="-620" width="634" height="492" as="geometry">
            <mxRectangle x="488" y="-400" width="130" height="26" as="alternateBounds" />
          </mxGeometry>
        </mxCell>
        <mxCell id="ku9uCke8i7dfiXiMKxOJ-117" value="Расчитать победителей ставок" style="shape=note;whiteSpace=wrap;html=1;backgroundOutline=1;darkOpacity=0.05;fillColor=#a7c5fc;strokeColor=none;fontSize=16;fontStyle=0;rotation=0;shadow=1;" vertex="1" parent="ku9uCke8i7dfiXiMKxOJ-126">
          <mxGeometry x="180" y="110" width="120" height="120" as="geometry" />
        </mxCell>
        <mxCell id="ku9uCke8i7dfiXiMKxOJ-119" value="Результат выполненного заказа" style="shape=note;whiteSpace=wrap;html=1;backgroundOutline=1;darkOpacity=0.05;fillColor=#b0deb3;strokeColor=none;fontSize=16;fontStyle=0;rotation=0;shadow=1;" vertex="1" parent="ku9uCke8i7dfiXiMKxOJ-126">
          <mxGeometry x="50" y="110" width="120" height="120" as="geometry" />
        </mxCell>
        <mxCell id="ku9uCke8i7dfiXiMKxOJ-114" value="Менеджер" style="shape=note;whiteSpace=wrap;html=1;backgroundOutline=1;darkOpacity=0.05;fillColor=#FEE750;strokeColor=none;fontSize=18;fontStyle=0;rotation=0;shadow=1;" vertex="1" parent="ku9uCke8i7dfiXiMKxOJ-126">
          <mxGeometry x="50" y="270" width="120" height="120" as="geometry" />
        </mxCell>
        <mxCell id="ku9uCke8i7dfiXiMKxOJ-115" value="Сделал ставку" style="shape=note;whiteSpace=wrap;html=1;backgroundOutline=1;darkOpacity=0.05;fillColor=#feae57;strokeColor=none;fontSize=16;fontStyle=0;rotation=0;shadow=1;" vertex="1" parent="ku9uCke8i7dfiXiMKxOJ-126">
          <mxGeometry x="375" y="282" width="120" height="120" as="geometry" />
        </mxCell>
        <mxCell id="ku9uCke8i7dfiXiMKxOJ-116" value="Сделать ставку" style="shape=note;whiteSpace=wrap;html=1;backgroundOutline=1;darkOpacity=0.05;fillColor=#a7c5fc;strokeColor=none;fontSize=16;fontStyle=0;rotation=0;shadow=1;" vertex="1" parent="ku9uCke8i7dfiXiMKxOJ-126">
          <mxGeometry x="225" y="282" width="120" height="120" as="geometry" />
        </mxCell>
        <mxCell id="ku9uCke8i7dfiXiMKxOJ-127" value="Инвойсы" style="swimlane;whiteSpace=wrap;html=1;strokeColor=none;swimlaneLine=0;fillColor=#F5F5F5;gradientColor=none;swimlaneFillColor=#f9f9f9;fontStyle=1;fontColor=#4D4D4D;glass=0;shadow=0;" vertex="1" parent="1">
          <mxGeometry x="2420" y="-650" width="1114.5" height="492" as="geometry">
            <mxRectangle x="488" y="-400" width="130" height="26" as="alternateBounds" />
          </mxGeometry>
        </mxCell>
        <mxCell id="ku9uCke8i7dfiXiMKxOJ-43" value="Крон каждое воскресенье" style="shape=note;whiteSpace=wrap;html=1;backgroundOutline=1;darkOpacity=0.05;fillColor=#FEE750;strokeColor=none;fontSize=18;fontStyle=0;rotation=0;shadow=1;" vertex="1" parent="ku9uCke8i7dfiXiMKxOJ-127">
          <mxGeometry x="33.5" y="100" width="120" height="120" as="geometry" />
        </mxCell>
        <mxCell id="ku9uCke8i7dfiXiMKxOJ-44" value="Выставил инвойс клиенту" style="shape=note;whiteSpace=wrap;html=1;backgroundOutline=1;darkOpacity=0.05;fillColor=#feae57;strokeColor=none;fontSize=16;fontStyle=0;rotation=0;shadow=1;" vertex="1" parent="ku9uCke8i7dfiXiMKxOJ-127">
          <mxGeometry x="463.5" y="100" width="120" height="120" as="geometry" />
        </mxCell>
        <mxCell id="ku9uCke8i7dfiXiMKxOJ-45" value="Списал деньги" style="shape=note;whiteSpace=wrap;html=1;backgroundOutline=1;darkOpacity=0.05;fillColor=#feae57;strokeColor=none;fontSize=16;fontStyle=0;rotation=0;shadow=1;" vertex="1" parent="ku9uCke8i7dfiXiMKxOJ-127">
          <mxGeometry x="994.5" y="110" width="120" height="120" as="geometry" />
        </mxCell>
        <mxCell id="ku9uCke8i7dfiXiMKxOJ-100" value="Выставить инвой клиенту" style="shape=note;whiteSpace=wrap;html=1;backgroundOutline=1;darkOpacity=0.05;fillColor=#a7c5fc;strokeColor=none;fontSize=16;fontStyle=0;rotation=0;shadow=1;" vertex="1" parent="ku9uCke8i7dfiXiMKxOJ-127">
          <mxGeometry x="313.5" y="100" width="120" height="120" as="geometry" />
        </mxCell>
        <mxCell id="ku9uCke8i7dfiXiMKxOJ-102" value="У клиенты были заказы на прошедшей неделе" style="shape=note;whiteSpace=wrap;html=1;backgroundOutline=1;darkOpacity=0.05;fillColor=#da99e6;strokeColor=none;fontSize=16;fontStyle=0;rotation=0;shadow=1;" vertex="1" parent="ku9uCke8i7dfiXiMKxOJ-127">
          <mxGeometry x="173.5" y="100" width="120" height="120" as="geometry" />
        </mxCell>
        <mxCell id="ku9uCke8i7dfiXiMKxOJ-104" value="Баланс клиента положительный" style="shape=note;whiteSpace=wrap;html=1;backgroundOutline=1;darkOpacity=0.05;fillColor=#da99e6;strokeColor=none;fontSize=16;fontStyle=0;rotation=0;shadow=1;" vertex="1" parent="ku9uCke8i7dfiXiMKxOJ-127">
          <mxGeometry x="708.5" y="110" width="120" height="120" as="geometry" />
        </mxCell>
        <mxCell id="ku9uCke8i7dfiXiMKxOJ-105" value="Списать деньги" style="shape=note;whiteSpace=wrap;html=1;backgroundOutline=1;darkOpacity=0.05;fillColor=#a7c5fc;strokeColor=none;fontSize=16;fontStyle=0;rotation=0;shadow=1;" vertex="1" parent="ku9uCke8i7dfiXiMKxOJ-127">
          <mxGeometry x="854.5" y="110" width="120" height="120" as="geometry" />
        </mxCell>
        <mxCell id="ku9uCke8i7dfiXiMKxOJ-121" style="edgeStyle=orthogonalEdgeStyle;rounded=0;orthogonalLoop=1;jettySize=auto;html=1;exitX=0;exitY=0;exitDx=119.99999999999999;exitDy=75;exitPerimeter=0;entryX=0;entryY=0.5;entryDx=0;entryDy=0;entryPerimeter=0;" edge="1" parent="ku9uCke8i7dfiXiMKxOJ-127" source="ku9uCke8i7dfiXiMKxOJ-44" target="ku9uCke8i7dfiXiMKxOJ-104">
          <mxGeometry relative="1" as="geometry" />
        </mxCell>
        <mxCell id="ku9uCke8i7dfiXiMKxOJ-47" value="Крон каждый последний день месяца" style="shape=note;whiteSpace=wrap;html=1;backgroundOutline=1;darkOpacity=0.05;fillColor=#FEE750;strokeColor=none;fontSize=18;fontStyle=0;rotation=0;shadow=1;" vertex="1" parent="ku9uCke8i7dfiXiMKxOJ-127">
          <mxGeometry x="55" y="320" width="120" height="120" as="geometry" />
        </mxCell>
        <mxCell id="ku9uCke8i7dfiXiMKxOJ-48" value="Выставил инвойс воркеру" style="shape=note;whiteSpace=wrap;html=1;backgroundOutline=1;darkOpacity=0.05;fillColor=#feae57;strokeColor=none;fontSize=16;fontStyle=0;rotation=0;shadow=1;" vertex="1" parent="ku9uCke8i7dfiXiMKxOJ-127">
          <mxGeometry x="350" y="320" width="120" height="120" as="geometry" />
        </mxCell>
        <mxCell id="ku9uCke8i7dfiXiMKxOJ-50" value="Золотая шляпа" style="shape=note;whiteSpace=wrap;html=1;backgroundOutline=1;darkOpacity=0.05;fillColor=#FFB3C5;strokeColor=none;fontSize=16;fontStyle=0;rotation=0;shadow=1;" vertex="1" parent="ku9uCke8i7dfiXiMKxOJ-127">
          <mxGeometry x="805" y="340" width="120" height="120" as="geometry" />
        </mxCell>
        <mxCell id="ku9uCke8i7dfiXiMKxOJ-106" value="У воркера были выполненные заказы за месяц" style="shape=note;whiteSpace=wrap;html=1;backgroundOutline=1;darkOpacity=0.05;fillColor=#da99e6;strokeColor=none;fontSize=16;fontStyle=0;rotation=0;shadow=1;" vertex="1" parent="ku9uCke8i7dfiXiMKxOJ-127">
          <mxGeometry x="209" y="320" width="120" height="120" as="geometry" />
        </mxCell>
        <mxCell id="ku9uCke8i7dfiXiMKxOJ-108" value="Зачислить средства" style="shape=note;whiteSpace=wrap;html=1;backgroundOutline=1;darkOpacity=0.05;fillColor=#a7c5fc;strokeColor=none;fontSize=16;fontStyle=0;rotation=0;shadow=1;" vertex="1" parent="ku9uCke8i7dfiXiMKxOJ-127">
          <mxGeometry x="630" y="340" width="120" height="120" as="geometry" />
        </mxCell>
        <mxCell id="ku9uCke8i7dfiXiMKxOJ-109" style="edgeStyle=orthogonalEdgeStyle;rounded=0;orthogonalLoop=1;jettySize=auto;html=1;exitX=0;exitY=0;exitDx=120;exitDy=75;exitPerimeter=0;entryX=0;entryY=0.5;entryDx=0;entryDy=0;entryPerimeter=0;" edge="1" parent="ku9uCke8i7dfiXiMKxOJ-127" source="ku9uCke8i7dfiXiMKxOJ-108" target="ku9uCke8i7dfiXiMKxOJ-50">
          <mxGeometry relative="1" as="geometry" />
        </mxCell>
        <mxCell id="ku9uCke8i7dfiXiMKxOJ-120" style="edgeStyle=orthogonalEdgeStyle;rounded=0;orthogonalLoop=1;jettySize=auto;html=1;exitX=0;exitY=0;exitDx=119.99999999999999;exitDy=75;exitPerimeter=0;entryX=0;entryY=0.5;entryDx=0;entryDy=0;entryPerimeter=0;" edge="1" parent="ku9uCke8i7dfiXiMKxOJ-127" source="ku9uCke8i7dfiXiMKxOJ-48" target="ku9uCke8i7dfiXiMKxOJ-108">
          <mxGeometry relative="1" as="geometry" />
        </mxCell>
        <mxCell id="ku9uCke8i7dfiXiMKxOJ-122" value="Регистрация воркера" style="swimlane;whiteSpace=wrap;html=1;strokeColor=none;swimlaneLine=0;fillColor=#F5F5F5;gradientColor=none;swimlaneFillColor=#f9f9f9;fontStyle=1;fontColor=#4D4D4D;glass=0;shadow=0;" vertex="1" parent="1">
          <mxGeometry x="240" y="-1570" width="1124" height="820" as="geometry">
            <mxRectangle x="488" y="-400" width="130" height="26" as="alternateBounds" />
          </mxGeometry>
        </mxCell>
        <mxCell id="ku9uCke8i7dfiXiMKxOJ-19" value="Воркер" style="shape=note;whiteSpace=wrap;html=1;backgroundOutline=1;darkOpacity=0.05;fillColor=#FEE750;strokeColor=none;fontSize=18;fontStyle=0;rotation=0;shadow=1;" vertex="1" parent="ku9uCke8i7dfiXiMKxOJ-122">
          <mxGeometry x="34" y="70" width="120" height="120" as="geometry" />
        </mxCell>
        <mxCell id="ku9uCke8i7dfiXiMKxOJ-27" value="Оставил заявку" style="shape=note;whiteSpace=wrap;html=1;backgroundOutline=1;darkOpacity=0.05;fillColor=#feae57;strokeColor=none;fontSize=16;fontStyle=0;rotation=0;shadow=1;" vertex="1" parent="ku9uCke8i7dfiXiMKxOJ-122">
          <mxGeometry x="354" y="80" width="120" height="120" as="geometry" />
        </mxCell>
        <mxCell id="ku9uCke8i7dfiXiMKxOJ-66" value="Заполнить заявку" style="shape=note;whiteSpace=wrap;html=1;backgroundOutline=1;darkOpacity=0.05;fillColor=#a7c5fc;strokeColor=none;fontSize=16;fontStyle=0;rotation=0;shadow=1;" vertex="1" parent="ku9uCke8i7dfiXiMKxOJ-122">
          <mxGeometry x="184" y="70" width="120" height="120" as="geometry" />
        </mxCell>
        <mxCell id="ku9uCke8i7dfiXiMKxOJ-31" value="Успешно прошел тест" style="shape=note;whiteSpace=wrap;html=1;backgroundOutline=1;darkOpacity=0.05;fillColor=#feae57;strokeColor=none;fontSize=16;fontStyle=0;rotation=0;shadow=1;" vertex="1" parent="ku9uCke8i7dfiXiMKxOJ-122">
          <mxGeometry x="903" y="230" width="120" height="120" as="geometry" />
        </mxCell>
        <mxCell id="ku9uCke8i7dfiXiMKxOJ-57" value="Прошел тест" style="shape=note;whiteSpace=wrap;html=1;backgroundOutline=1;darkOpacity=0.05;fillColor=#feae57;strokeColor=none;fontSize=16;fontStyle=0;rotation=0;shadow=1;" vertex="1" parent="ku9uCke8i7dfiXiMKxOJ-122">
          <mxGeometry x="513" y="260" width="120" height="120" as="geometry" />
        </mxCell>
        <mxCell id="ku9uCke8i7dfiXiMKxOJ-69" value="Воркер" style="shape=note;whiteSpace=wrap;html=1;backgroundOutline=1;darkOpacity=0.05;fillColor=#FEE750;strokeColor=none;fontSize=18;fontStyle=0;rotation=0;shadow=1;" vertex="1" parent="ku9uCke8i7dfiXiMKxOJ-122">
          <mxGeometry x="193" y="260" width="120" height="120" as="geometry" />
        </mxCell>
        <mxCell id="ku9uCke8i7dfiXiMKxOJ-70" value="Пройти тест" style="shape=note;whiteSpace=wrap;html=1;backgroundOutline=1;darkOpacity=0.05;fillColor=#a7c5fc;strokeColor=none;fontSize=16;fontStyle=0;rotation=0;shadow=1;" vertex="1" parent="ku9uCke8i7dfiXiMKxOJ-122">
          <mxGeometry x="353" y="260" width="120" height="120" as="geometry" />
        </mxCell>
        <mxCell id="ku9uCke8i7dfiXiMKxOJ-71" value="Тест пройден успешно" style="shape=note;whiteSpace=wrap;html=1;backgroundOutline=1;darkOpacity=0.05;fillColor=#da99e6;strokeColor=none;fontSize=16;fontStyle=0;rotation=0;shadow=1;" vertex="1" parent="ku9uCke8i7dfiXiMKxOJ-122">
          <mxGeometry x="763" y="220" width="120" height="120" as="geometry" />
        </mxCell>
        <mxCell id="ku9uCke8i7dfiXiMKxOJ-72" style="edgeStyle=orthogonalEdgeStyle;rounded=0;orthogonalLoop=1;jettySize=auto;html=1;exitX=0;exitY=0;exitDx=120;exitDy=75;exitPerimeter=0;entryX=0;entryY=0.5;entryDx=0;entryDy=0;entryPerimeter=0;" edge="1" parent="ku9uCke8i7dfiXiMKxOJ-122" source="ku9uCke8i7dfiXiMKxOJ-57" target="ku9uCke8i7dfiXiMKxOJ-71">
          <mxGeometry relative="1" as="geometry" />
        </mxCell>
        <mxCell id="ku9uCke8i7dfiXiMKxOJ-113" value="Вопросы теста" style="shape=note;whiteSpace=wrap;html=1;backgroundOutline=1;darkOpacity=0.05;fillColor=#b0deb3;strokeColor=none;fontSize=16;fontStyle=0;rotation=0;shadow=1;" vertex="1" parent="ku9uCke8i7dfiXiMKxOJ-122">
          <mxGeometry x="54" y="260" width="120" height="120" as="geometry" />
        </mxCell>
        <mxCell id="ku9uCke8i7dfiXiMKxOJ-32" value="Отбраковался по результату теста" style="shape=note;whiteSpace=wrap;html=1;backgroundOutline=1;darkOpacity=0.05;fillColor=#feae57;strokeColor=none;fontSize=16;fontStyle=0;rotation=0;shadow=1;" vertex="1" parent="ku9uCke8i7dfiXiMKxOJ-122">
          <mxGeometry x="903" y="360" width="120" height="120" as="geometry" />
        </mxCell>
        <mxCell id="ku9uCke8i7dfiXiMKxOJ-73" value="Тест провеален" style="shape=note;whiteSpace=wrap;html=1;backgroundOutline=1;darkOpacity=0.05;fillColor=#da99e6;strokeColor=none;fontSize=16;fontStyle=0;rotation=0;shadow=1;" vertex="1" parent="ku9uCke8i7dfiXiMKxOJ-122">
          <mxGeometry x="763" y="360" width="120" height="120" as="geometry" />
        </mxCell>
        <mxCell id="ku9uCke8i7dfiXiMKxOJ-74" style="edgeStyle=orthogonalEdgeStyle;rounded=0;orthogonalLoop=1;jettySize=auto;html=1;exitX=0;exitY=0;exitDx=120;exitDy=75;exitPerimeter=0;entryX=0;entryY=0.5;entryDx=0;entryDy=0;entryPerimeter=0;" edge="1" parent="ku9uCke8i7dfiXiMKxOJ-122" source="ku9uCke8i7dfiXiMKxOJ-57" target="ku9uCke8i7dfiXiMKxOJ-73">
          <mxGeometry relative="1" as="geometry" />
        </mxCell>
        <mxCell id="ku9uCke8i7dfiXiMKxOJ-86" value="Менеджер" style="shape=note;whiteSpace=wrap;html=1;backgroundOutline=1;darkOpacity=0.05;fillColor=#FEE750;strokeColor=none;fontSize=18;fontStyle=0;rotation=0;shadow=1;" vertex="1" parent="ku9uCke8i7dfiXiMKxOJ-122">
          <mxGeometry x="174" y="670" width="120" height="120" as="geometry" />
        </mxCell>
        <mxCell id="ku9uCke8i7dfiXiMKxOJ-87" value="Назначить набор тестов" style="shape=note;whiteSpace=wrap;html=1;backgroundOutline=1;darkOpacity=0.05;fillColor=#a7c5fc;strokeColor=none;fontSize=16;fontStyle=0;rotation=0;shadow=1;" vertex="1" parent="ku9uCke8i7dfiXiMKxOJ-122">
          <mxGeometry x="334" y="680" width="120" height="120" as="geometry" />
        </mxCell>
        <mxCell id="ku9uCke8i7dfiXiMKxOJ-28" value="Назначил набор тестов&lt;div&gt;воркеру-кандидату&lt;/div&gt;" style="shape=note;whiteSpace=wrap;html=1;backgroundOutline=1;darkOpacity=0.05;fillColor=#feae57;strokeColor=none;fontSize=16;fontStyle=0;rotation=0;shadow=1;" vertex="1" parent="ku9uCke8i7dfiXiMKxOJ-122">
          <mxGeometry x="494" y="690" width="120" height="120" as="geometry" />
        </mxCell>
        <mxCell id="ku9uCke8i7dfiXiMKxOJ-88" style="edgeStyle=orthogonalEdgeStyle;rounded=0;orthogonalLoop=1;jettySize=auto;html=1;exitX=0;exitY=0;exitDx=119.99999999999999;exitDy=75;exitPerimeter=0;entryX=0;entryY=0.5;entryDx=0;entryDy=0;entryPerimeter=0;" edge="1" parent="ku9uCke8i7dfiXiMKxOJ-122" source="ku9uCke8i7dfiXiMKxOJ-27" target="ku9uCke8i7dfiXiMKxOJ-87">
          <mxGeometry relative="1" as="geometry">
            <mxPoint x="1174" y="3040" as="targetPoint" />
          </mxGeometry>
        </mxCell>
        <mxCell id="ku9uCke8i7dfiXiMKxOJ-132" style="edgeStyle=orthogonalEdgeStyle;rounded=0;orthogonalLoop=1;jettySize=auto;html=1;exitX=0.5;exitY=1;exitDx=0;exitDy=0;exitPerimeter=0;entryX=0;entryY=0.5;entryDx=0;entryDy=0;entryPerimeter=0;" edge="1" parent="ku9uCke8i7dfiXiMKxOJ-122" source="ku9uCke8i7dfiXiMKxOJ-28" target="ku9uCke8i7dfiXiMKxOJ-113">
          <mxGeometry relative="1" as="geometry" />
        </mxCell>
        <mxCell id="ku9uCke8i7dfiXiMKxOJ-133" value="Тесты" style="shape=note;whiteSpace=wrap;html=1;backgroundOutline=1;darkOpacity=0.05;fillColor=#b0deb3;strokeColor=none;fontSize=16;fontStyle=0;rotation=0;shadow=1;" vertex="1" parent="ku9uCke8i7dfiXiMKxOJ-122">
          <mxGeometry x="40" y="670" width="120" height="120" as="geometry" />
        </mxCell>
        <mxCell id="ku9uCke8i7dfiXiMKxOJ-1" value="Actor" style="shape=note;whiteSpace=wrap;html=1;backgroundOutline=1;darkOpacity=0.05;fillColor=#FEE750;strokeColor=none;fontSize=18;fontStyle=0;rotation=0;shadow=1;" vertex="1" parent="1">
          <mxGeometry x="-1120" y="-1450" width="120" height="120" as="geometry" />
        </mxCell>
        <mxCell id="ku9uCke8i7dfiXiMKxOJ-2" value="Event" style="shape=note;whiteSpace=wrap;html=1;backgroundOutline=1;darkOpacity=0.05;fillColor=#feae57;strokeColor=none;fontSize=16;fontStyle=0;rotation=0;shadow=1;" vertex="1" parent="1">
          <mxGeometry x="-1120" y="-1170" width="120" height="120" as="geometry" />
        </mxCell>
        <mxCell id="ku9uCke8i7dfiXiMKxOJ-3" value="Command" style="shape=note;whiteSpace=wrap;html=1;backgroundOutline=1;darkOpacity=0.05;fillColor=#a7c5fc;strokeColor=none;fontSize=16;fontStyle=0;rotation=0;shadow=1;" vertex="1" parent="1">
          <mxGeometry x="-1120" y="-1310" width="120" height="120" as="geometry" />
        </mxCell>
        <mxCell id="ku9uCke8i7dfiXiMKxOJ-4" value="Policy" style="shape=note;whiteSpace=wrap;html=1;backgroundOutline=1;darkOpacity=0.05;fillColor=#da99e6;strokeColor=none;fontSize=16;fontStyle=0;rotation=0;shadow=1;" vertex="1" parent="1">
          <mxGeometry x="-1120" y="-1026" width="120" height="120" as="geometry" />
        </mxCell>
        <mxCell id="ku9uCke8i7dfiXiMKxOJ-5" value="External&lt;span style=&quot;background-color: initial;&quot;&gt;&amp;nbsp;System&lt;/span&gt;" style="shape=note;whiteSpace=wrap;html=1;backgroundOutline=1;darkOpacity=0.05;fillColor=#FFB3C5;strokeColor=none;fontSize=16;fontStyle=0;rotation=0;shadow=1;" vertex="1" parent="1">
          <mxGeometry x="-1120" y="-750" width="120" height="120" as="geometry" />
        </mxCell>
        <mxCell id="ku9uCke8i7dfiXiMKxOJ-7" value="Read&lt;div&gt;&lt;span style=&quot;background-color: initial;&quot;&gt;&amp;nbsp;Model&lt;/span&gt;&lt;/div&gt;" style="shape=note;whiteSpace=wrap;html=1;backgroundOutline=1;darkOpacity=0.05;fillColor=#b0deb3;strokeColor=none;fontSize=16;fontStyle=0;rotation=0;shadow=1;" vertex="1" parent="1">
          <mxGeometry x="-1120" y="-890" width="120" height="120" as="geometry" />
        </mxCell>
        <mxCell id="ku9uCke8i7dfiXiMKxOJ-11" value="Note" style="shape=note;whiteSpace=wrap;html=1;backgroundOutline=1;darkOpacity=0.05;fillColor=#CCCCCC;strokeColor=none;fontSize=16;fontStyle=0;rotation=0;shadow=1;" vertex="1" parent="1">
          <mxGeometry x="-1120" y="-610" width="120" height="120" as="geometry" />
        </mxCell>
        <mxCell id="ku9uCke8i7dfiXiMKxOJ-52" value="Зачислил денег воркеру" style="shape=note;whiteSpace=wrap;html=1;backgroundOutline=1;darkOpacity=0.05;fillColor=#feae57;strokeColor=none;fontSize=16;fontStyle=0;rotation=0;shadow=1;" vertex="1" parent="1">
          <mxGeometry x="-391" y="-1045" width="120" height="120" as="geometry" />
        </mxCell>
        <mxCell id="ku9uCke8i7dfiXiMKxOJ-91" value="Менеджер" style="shape=note;whiteSpace=wrap;html=1;backgroundOutline=1;darkOpacity=0.05;fillColor=#FEE750;strokeColor=none;fontSize=18;fontStyle=0;rotation=0;shadow=1;" vertex="1" parent="1">
          <mxGeometry x="-711" y="-1055" width="120" height="120" as="geometry" />
        </mxCell>
        <mxCell id="ku9uCke8i7dfiXiMKxOJ-92" value="Начислить денег воркеру" style="shape=note;whiteSpace=wrap;html=1;backgroundOutline=1;darkOpacity=0.05;fillColor=#a7c5fc;strokeColor=none;fontSize=16;fontStyle=0;rotation=0;shadow=1;" vertex="1" parent="1">
          <mxGeometry x="-541" y="-1045" width="120" height="120" as="geometry" />
        </mxCell>
        <mxCell id="ku9uCke8i7dfiXiMKxOJ-138" style="edgeStyle=orthogonalEdgeStyle;rounded=0;orthogonalLoop=1;jettySize=auto;html=1;exitX=0.5;exitY=1;exitDx=0;exitDy=0;exitPerimeter=0;entryX=0;entryY=0.5;entryDx=0;entryDy=0;entryPerimeter=0;" edge="1" parent="1" source="ku9uCke8i7dfiXiMKxOJ-24" target="ku9uCke8i7dfiXiMKxOJ-93">
          <mxGeometry relative="1" as="geometry">
            <mxPoint x="1330" y="180" as="targetPoint" />
          </mxGeometry>
        </mxCell>
        <mxCell id="ku9uCke8i7dfiXiMKxOJ-24" value="Воркер назначен" style="shape=note;whiteSpace=wrap;html=1;backgroundOutline=1;darkOpacity=0.05;fillColor=#feae57;strokeColor=none;fontSize=16;fontStyle=0;rotation=0;shadow=1;" vertex="1" parent="1">
          <mxGeometry x="2579" y="-1490" width="120" height="120" as="geometry" />
        </mxCell>
        <mxCell id="ku9uCke8i7dfiXiMKxOJ-75" value="Назначить воркера на заказ" style="shape=note;whiteSpace=wrap;html=1;backgroundOutline=1;darkOpacity=0.05;fillColor=#a7c5fc;strokeColor=none;fontSize=16;fontStyle=0;rotation=0;shadow=1;" vertex="1" parent="1">
          <mxGeometry x="2430" y="-1490" width="120" height="120" as="geometry" />
        </mxCell>
        <mxCell id="ku9uCke8i7dfiXiMKxOJ-111" value="Характеристики воркеров" style="shape=note;whiteSpace=wrap;html=1;backgroundOutline=1;darkOpacity=0.05;fillColor=#b0deb3;strokeColor=none;fontSize=16;fontStyle=0;rotation=0;shadow=1;" vertex="1" parent="1">
          <mxGeometry x="2290" y="-1490" width="120" height="120" as="geometry" />
        </mxCell>
        <mxCell id="ku9uCke8i7dfiXiMKxOJ-110" style="edgeStyle=orthogonalEdgeStyle;rounded=0;orthogonalLoop=1;jettySize=auto;html=1;exitX=0;exitY=0;exitDx=120;exitDy=75;exitPerimeter=0;entryX=0;entryY=0.5;entryDx=0;entryDy=0;entryPerimeter=0;" edge="1" parent="1" source="ku9uCke8i7dfiXiMKxOJ-21" target="ku9uCke8i7dfiXiMKxOJ-111">
          <mxGeometry relative="1" as="geometry" />
        </mxCell>
        <mxCell id="ku9uCke8i7dfiXiMKxOJ-130" style="edgeStyle=orthogonalEdgeStyle;rounded=0;orthogonalLoop=1;jettySize=auto;html=1;exitX=0;exitY=0;exitDx=120;exitDy=75;exitPerimeter=0;entryX=0;entryY=0.5;entryDx=0;entryDy=0;entryPerimeter=0;" edge="1" parent="1" source="ku9uCke8i7dfiXiMKxOJ-26" target="ku9uCke8i7dfiXiMKxOJ-119">
          <mxGeometry relative="1" as="geometry" />
        </mxCell>
        <mxCell id="ku9uCke8i7dfiXiMKxOJ-139" style="edgeStyle=orthogonalEdgeStyle;rounded=0;orthogonalLoop=1;jettySize=auto;html=1;exitX=0;exitY=0;exitDx=120;exitDy=75;exitPerimeter=0;entryX=0;entryY=0.5;entryDx=0;entryDy=0;entryPerimeter=0;" edge="1" parent="1" source="ku9uCke8i7dfiXiMKxOJ-30" target="ku9uCke8i7dfiXiMKxOJ-133">
          <mxGeometry relative="1" as="geometry" />
        </mxCell>
      </root>
    </mxGraphModel>
  </diagram>
  <diagram id="ZchBC3PbLqz8BBDUwFWk" name="DATA">
    <mxGraphModel dx="5273" dy="4742" grid="1" gridSize="10" guides="1" tooltips="1" connect="1" arrows="1" fold="1" page="1" pageScale="1" pageWidth="1169" pageHeight="827" math="0" shadow="0">
      <root>
        <mxCell id="0" />
        <mxCell id="1" parent="0" />
        <mxCell id="5jRI9dhnK7LnnSULJHRF-6" value="" style="rounded=0;whiteSpace=wrap;html=1;" vertex="1" parent="1">
          <mxGeometry x="-1130" y="-740" width="370" height="300" as="geometry" />
        </mxCell>
        <mxCell id="fNLCn_rjJEL-fZL9Knhe-1" value="Менеджмент платформы" style="swimlane;whiteSpace=wrap;html=1;strokeColor=none;swimlaneLine=0;fillColor=#F5F5F5;gradientColor=none;swimlaneFillColor=#f9f9f9;fontStyle=1;fontColor=#4D4D4D;glass=0;shadow=0;" vertex="1" parent="1">
          <mxGeometry x="-1070" y="-1590" width="920" height="660" as="geometry">
            <mxRectangle x="488" y="-400" width="130" height="26" as="alternateBounds" />
          </mxGeometry>
        </mxCell>
        <mxCell id="Ehr9GQgyml7XGzt6fKWF-14" value="Manager" style="rounded=0;whiteSpace=wrap;html=1;" vertex="1" parent="fNLCn_rjJEL-fZL9Knhe-1">
          <mxGeometry x="320" y="100" width="120" height="60" as="geometry" />
        </mxCell>
        <mxCell id="dqWx0Q5ol9Fa4tBbzWb_-1" value="Order" style="rounded=0;whiteSpace=wrap;html=1;strokeColor=#009900;" vertex="1" parent="fNLCn_rjJEL-fZL9Knhe-1">
          <mxGeometry x="580" y="310" width="120" height="60" as="geometry" />
        </mxCell>
        <mxCell id="gppDMxM_G1S0D-E3RuNu-1" value="Test" style="rounded=0;whiteSpace=wrap;html=1;" vertex="1" parent="fNLCn_rjJEL-fZL9Knhe-1">
          <mxGeometry x="80" y="220" width="120" height="60" as="geometry" />
        </mxCell>
        <mxCell id="gppDMxM_G1S0D-E3RuNu-2" value="Question" style="rounded=0;whiteSpace=wrap;html=1;" vertex="1" parent="fNLCn_rjJEL-fZL9Knhe-1">
          <mxGeometry x="80" y="420" width="120" height="60" as="geometry" />
        </mxCell>
        <mxCell id="gppDMxM_G1S0D-E3RuNu-5" value="Client" style="rounded=0;whiteSpace=wrap;html=1;" vertex="1" parent="fNLCn_rjJEL-fZL9Knhe-1">
          <mxGeometry x="580" y="100" width="120" height="60" as="geometry" />
        </mxCell>
        <mxCell id="zvJFjlJV5gNUe2d3AzAu-1" value="" style="endArrow=classic;html=1;rounded=0;exitX=0;exitY=0.5;exitDx=0;exitDy=0;entryX=0.5;entryY=0;entryDx=0;entryDy=0;" edge="1" parent="fNLCn_rjJEL-fZL9Knhe-1" source="Ehr9GQgyml7XGzt6fKWF-14" target="gppDMxM_G1S0D-E3RuNu-1">
          <mxGeometry relative="1" as="geometry">
            <mxPoint x="460" y="420" as="sourcePoint" />
            <mxPoint x="560" y="420" as="targetPoint" />
            <Array as="points">
              <mxPoint x="140" y="130" />
            </Array>
          </mxGeometry>
        </mxCell>
        <mxCell id="zvJFjlJV5gNUe2d3AzAu-2" value="has_many" style="edgeLabel;resizable=0;html=1;;align=center;verticalAlign=middle;" connectable="0" vertex="1" parent="zvJFjlJV5gNUe2d3AzAu-1">
          <mxGeometry relative="1" as="geometry" />
        </mxCell>
        <mxCell id="zvJFjlJV5gNUe2d3AzAu-4" value="" style="endArrow=classic;html=1;rounded=0;exitX=0.5;exitY=1;exitDx=0;exitDy=0;entryX=0.5;entryY=0;entryDx=0;entryDy=0;" edge="1" parent="fNLCn_rjJEL-fZL9Knhe-1" source="gppDMxM_G1S0D-E3RuNu-1" target="gppDMxM_G1S0D-E3RuNu-2">
          <mxGeometry relative="1" as="geometry">
            <mxPoint x="280" y="420" as="sourcePoint" />
            <mxPoint x="380" y="420" as="targetPoint" />
          </mxGeometry>
        </mxCell>
        <mxCell id="zvJFjlJV5gNUe2d3AzAu-5" value="has_many" style="edgeLabel;resizable=0;html=1;;align=center;verticalAlign=middle;" connectable="0" vertex="1" parent="zvJFjlJV5gNUe2d3AzAu-4">
          <mxGeometry relative="1" as="geometry" />
        </mxCell>
        <mxCell id="zvJFjlJV5gNUe2d3AzAu-10" value="" style="endArrow=classic;html=1;rounded=0;exitX=0.5;exitY=1;exitDx=0;exitDy=0;entryX=0.5;entryY=0;entryDx=0;entryDy=0;" edge="1" parent="fNLCn_rjJEL-fZL9Knhe-1" source="gppDMxM_G1S0D-E3RuNu-5" target="dqWx0Q5ol9Fa4tBbzWb_-1">
          <mxGeometry relative="1" as="geometry">
            <mxPoint x="310" y="340" as="sourcePoint" />
            <mxPoint x="410" y="340" as="targetPoint" />
          </mxGeometry>
        </mxCell>
        <mxCell id="zvJFjlJV5gNUe2d3AzAu-11" value="has_many" style="edgeLabel;resizable=0;html=1;;align=center;verticalAlign=middle;" connectable="0" vertex="1" parent="zvJFjlJV5gNUe2d3AzAu-10">
          <mxGeometry relative="1" as="geometry" />
        </mxCell>
        <mxCell id="aT6xinN0zQ9YDROJIFP3-1" value="Cash balance" style="rounded=0;whiteSpace=wrap;html=1;" vertex="1" parent="fNLCn_rjJEL-fZL9Knhe-1">
          <mxGeometry x="115" y="560" width="120" height="60" as="geometry" />
        </mxCell>
        <mxCell id="EyRjng0x0nRohxVUiB7G-1" value="Worker" style="rounded=0;whiteSpace=wrap;html=1;strokeColor=#009900;" vertex="1" parent="fNLCn_rjJEL-fZL9Knhe-1">
          <mxGeometry x="525" y="560" width="120" height="60" as="geometry" />
        </mxCell>
        <mxCell id="zvJFjlJV5gNUe2d3AzAu-8" value="" style="endArrow=classic;html=1;rounded=0;" edge="1" parent="fNLCn_rjJEL-fZL9Knhe-1">
          <mxGeometry relative="1" as="geometry">
            <mxPoint x="525" y="590" as="sourcePoint" />
            <mxPoint x="235" y="590" as="targetPoint" />
          </mxGeometry>
        </mxCell>
        <mxCell id="zvJFjlJV5gNUe2d3AzAu-9" value="has_one" style="edgeLabel;resizable=0;html=1;;align=center;verticalAlign=middle;" connectable="0" vertex="1" parent="zvJFjlJV5gNUe2d3AzAu-8">
          <mxGeometry relative="1" as="geometry" />
        </mxCell>
        <mxCell id="E50k8dbaBVPxqtLRVtDK-3" value="" style="endArrow=classic;html=1;rounded=0;exitX=0.5;exitY=0;exitDx=0;exitDy=0;entryX=0.5;entryY=1;entryDx=0;entryDy=0;" edge="1" parent="fNLCn_rjJEL-fZL9Knhe-1" source="EyRjng0x0nRohxVUiB7G-1" target="dqWx0Q5ol9Fa4tBbzWb_-1">
          <mxGeometry relative="1" as="geometry">
            <mxPoint x="460" y="470" as="sourcePoint" />
            <mxPoint x="630" y="510" as="targetPoint" />
            <Array as="points">
              <mxPoint x="585" y="480" />
              <mxPoint x="640" y="480" />
            </Array>
          </mxGeometry>
        </mxCell>
        <mxCell id="E50k8dbaBVPxqtLRVtDK-4" value="has_many" style="edgeLabel;resizable=0;html=1;;align=center;verticalAlign=middle;" connectable="0" vertex="1" parent="E50k8dbaBVPxqtLRVtDK-3">
          <mxGeometry relative="1" as="geometry" />
        </mxCell>
        <mxCell id="MhmNQFHW1jIegL4QRPWy-1" value="Регистрация воркера" style="swimlane;whiteSpace=wrap;html=1;strokeColor=none;swimlaneLine=0;fillColor=#F5F5F5;gradientColor=none;swimlaneFillColor=#f9f9f9;fontStyle=1;fontColor=#4D4D4D;glass=0;shadow=0;" vertex="1" parent="1">
          <mxGeometry y="-1590" width="580" height="610" as="geometry">
            <mxRectangle x="488" y="-400" width="130" height="26" as="alternateBounds" />
          </mxGeometry>
        </mxCell>
        <mxCell id="y9bbH5Bnu4w_57hg5uab-1" value="Worker" style="rounded=0;whiteSpace=wrap;html=1;" vertex="1" parent="MhmNQFHW1jIegL4QRPWy-1">
          <mxGeometry x="340" y="480" width="120" height="60" as="geometry" />
        </mxCell>
        <mxCell id="evIq3MUAaSziRxwsS2SR-1" value="Tests" style="rounded=0;whiteSpace=wrap;html=1;gradientColor=none;strokeColor=#009900;" vertex="1" parent="MhmNQFHW1jIegL4QRPWy-1">
          <mxGeometry x="100" y="330" width="120" height="60" as="geometry" />
        </mxCell>
        <mxCell id="ccyjBPumX6ShdWibgjcp-1" value="Application" style="rounded=0;whiteSpace=wrap;html=1;" vertex="1" parent="MhmNQFHW1jIegL4QRPWy-1">
          <mxGeometry x="250" y="160" width="120" height="60" as="geometry" />
        </mxCell>
        <mxCell id="8dvaBYSkCiUES1PxJSmY-1" value="Test results" style="rounded=0;whiteSpace=wrap;html=1;" vertex="1" parent="MhmNQFHW1jIegL4QRPWy-1">
          <mxGeometry x="430" y="319" width="120" height="60" as="geometry" />
        </mxCell>
        <mxCell id="AzEVNvwYPOGR4IYDuxi4-2" value="" style="endArrow=classic;html=1;rounded=0;exitX=0.25;exitY=0;exitDx=0;exitDy=0;entryX=1;entryY=1;entryDx=0;entryDy=0;" edge="1" parent="MhmNQFHW1jIegL4QRPWy-1" source="y9bbH5Bnu4w_57hg5uab-1" target="ccyjBPumX6ShdWibgjcp-1">
          <mxGeometry relative="1" as="geometry">
            <mxPoint x="490" y="390" as="sourcePoint" />
            <mxPoint x="590" y="390" as="targetPoint" />
          </mxGeometry>
        </mxCell>
        <mxCell id="AzEVNvwYPOGR4IYDuxi4-3" value="has_one" style="edgeLabel;resizable=0;html=1;;align=center;verticalAlign=middle;" connectable="0" vertex="1" parent="AzEVNvwYPOGR4IYDuxi4-2">
          <mxGeometry relative="1" as="geometry" />
        </mxCell>
        <mxCell id="AzEVNvwYPOGR4IYDuxi4-1" value="Manager" style="rounded=0;whiteSpace=wrap;html=1;" vertex="1" parent="MhmNQFHW1jIegL4QRPWy-1">
          <mxGeometry x="110" y="490" width="120" height="60" as="geometry" />
        </mxCell>
        <mxCell id="AzEVNvwYPOGR4IYDuxi4-4" value="" style="endArrow=classic;html=1;rounded=0;exitX=0;exitY=0;exitDx=0;exitDy=0;entryX=1;entryY=0.5;entryDx=0;entryDy=0;" edge="1" parent="MhmNQFHW1jIegL4QRPWy-1" source="y9bbH5Bnu4w_57hg5uab-1" target="evIq3MUAaSziRxwsS2SR-1">
          <mxGeometry relative="1" as="geometry">
            <mxPoint x="490" y="390" as="sourcePoint" />
            <mxPoint x="590" y="390" as="targetPoint" />
            <Array as="points">
              <mxPoint x="340" y="360" />
            </Array>
          </mxGeometry>
        </mxCell>
        <mxCell id="AzEVNvwYPOGR4IYDuxi4-5" value="has_one" style="edgeLabel;resizable=0;html=1;;align=center;verticalAlign=middle;" connectable="0" vertex="1" parent="AzEVNvwYPOGR4IYDuxi4-4">
          <mxGeometry relative="1" as="geometry" />
        </mxCell>
        <mxCell id="AzEVNvwYPOGR4IYDuxi4-6" value="" style="endArrow=classic;html=1;rounded=0;exitX=0.75;exitY=0;exitDx=0;exitDy=0;entryX=0;entryY=1;entryDx=0;entryDy=0;" edge="1" parent="MhmNQFHW1jIegL4QRPWy-1" source="y9bbH5Bnu4w_57hg5uab-1" target="8dvaBYSkCiUES1PxJSmY-1">
          <mxGeometry relative="1" as="geometry">
            <mxPoint x="490" y="390" as="sourcePoint" />
            <mxPoint x="430" y="390" as="targetPoint" />
          </mxGeometry>
        </mxCell>
        <mxCell id="AzEVNvwYPOGR4IYDuxi4-7" value="has_one" style="edgeLabel;resizable=0;html=1;;align=center;verticalAlign=middle;" connectable="0" vertex="1" parent="AzEVNvwYPOGR4IYDuxi4-6">
          <mxGeometry relative="1" as="geometry" />
        </mxCell>
        <mxCell id="xKTV0FFnvR7bTJ-dZy6b-1" value="Выполнение заказа" style="swimlane;whiteSpace=wrap;html=1;strokeColor=none;swimlaneLine=0;fillColor=#F5F5F5;gradientColor=none;swimlaneFillColor=#f9f9f9;fontStyle=1;fontColor=#4D4D4D;glass=0;shadow=0;" vertex="1" parent="1">
          <mxGeometry x="-820" y="-33" width="634" height="492" as="geometry">
            <mxRectangle x="488" y="-400" width="130" height="26" as="alternateBounds" />
          </mxGeometry>
        </mxCell>
        <mxCell id="E50k8dbaBVPxqtLRVtDK-1" value="Worker" style="rounded=0;whiteSpace=wrap;html=1;strokeColor=#009900;" vertex="1" parent="xKTV0FFnvR7bTJ-dZy6b-1">
          <mxGeometry x="50" y="237" width="120" height="60" as="geometry" />
        </mxCell>
        <mxCell id="E50k8dbaBVPxqtLRVtDK-5" value="Order" style="rounded=0;whiteSpace=wrap;html=1;" vertex="1" parent="xKTV0FFnvR7bTJ-dZy6b-1">
          <mxGeometry x="257" y="237" width="120" height="60" as="geometry" />
        </mxCell>
        <mxCell id="E50k8dbaBVPxqtLRVtDK-6" value="Client" style="rounded=0;whiteSpace=wrap;html=1;" vertex="1" parent="xKTV0FFnvR7bTJ-dZy6b-1">
          <mxGeometry x="257" y="70" width="120" height="60" as="geometry" />
        </mxCell>
        <mxCell id="XR1-DUJM9LYJW8IYbego-1" value="Order report" style="rounded=0;whiteSpace=wrap;html=1;" vertex="1" parent="xKTV0FFnvR7bTJ-dZy6b-1">
          <mxGeometry x="480" y="237" width="120" height="60" as="geometry" />
        </mxCell>
        <mxCell id="fo_VRXnTIhQ_rOO2lzV6-1" value="" style="endArrow=classic;html=1;rounded=0;exitX=1;exitY=0.5;exitDx=0;exitDy=0;entryX=0;entryY=0.5;entryDx=0;entryDy=0;" edge="1" parent="xKTV0FFnvR7bTJ-dZy6b-1" source="E50k8dbaBVPxqtLRVtDK-1" target="E50k8dbaBVPxqtLRVtDK-5">
          <mxGeometry relative="1" as="geometry">
            <mxPoint x="390" y="170" as="sourcePoint" />
            <mxPoint x="490" y="170" as="targetPoint" />
          </mxGeometry>
        </mxCell>
        <mxCell id="fo_VRXnTIhQ_rOO2lzV6-2" value="has_many" style="edgeLabel;resizable=0;html=1;;align=center;verticalAlign=middle;" connectable="0" vertex="1" parent="fo_VRXnTIhQ_rOO2lzV6-1">
          <mxGeometry relative="1" as="geometry" />
        </mxCell>
        <mxCell id="fo_VRXnTIhQ_rOO2lzV6-3" value="" style="endArrow=classic;html=1;rounded=0;exitX=0.458;exitY=0.999;exitDx=0;exitDy=0;exitPerimeter=0;entryX=0.463;entryY=0.011;entryDx=0;entryDy=0;entryPerimeter=0;" edge="1" parent="xKTV0FFnvR7bTJ-dZy6b-1" source="E50k8dbaBVPxqtLRVtDK-6" target="E50k8dbaBVPxqtLRVtDK-5">
          <mxGeometry relative="1" as="geometry">
            <mxPoint x="300" y="230" as="sourcePoint" />
            <mxPoint x="400" y="230" as="targetPoint" />
          </mxGeometry>
        </mxCell>
        <mxCell id="fo_VRXnTIhQ_rOO2lzV6-4" value="has_many" style="edgeLabel;resizable=0;html=1;;align=center;verticalAlign=middle;" connectable="0" vertex="1" parent="fo_VRXnTIhQ_rOO2lzV6-3">
          <mxGeometry relative="1" as="geometry" />
        </mxCell>
        <mxCell id="fo_VRXnTIhQ_rOO2lzV6-5" value="" style="endArrow=classic;html=1;rounded=0;exitX=1;exitY=0.5;exitDx=0;exitDy=0;entryX=0;entryY=0.5;entryDx=0;entryDy=0;" edge="1" parent="xKTV0FFnvR7bTJ-dZy6b-1" source="E50k8dbaBVPxqtLRVtDK-5" target="XR1-DUJM9LYJW8IYbego-1">
          <mxGeometry relative="1" as="geometry">
            <mxPoint x="300" y="230" as="sourcePoint" />
            <mxPoint x="400" y="230" as="targetPoint" />
          </mxGeometry>
        </mxCell>
        <mxCell id="fo_VRXnTIhQ_rOO2lzV6-6" value="has_one" style="edgeLabel;resizable=0;html=1;;align=center;verticalAlign=middle;" connectable="0" vertex="1" parent="fo_VRXnTIhQ_rOO2lzV6-5">
          <mxGeometry relative="1" as="geometry" />
        </mxCell>
        <mxCell id="DLa2L1sqV9SvlCsvGByb-2" value="" style="endArrow=classic;html=1;rounded=0;curved=0;strokeColor=#009900;fillColor=#d5e8d4;strokeWidth=4;entryX=0.75;entryY=1;entryDx=0;entryDy=0;exitX=0.5;exitY=0;exitDx=0;exitDy=0;" edge="1" parent="xKTV0FFnvR7bTJ-dZy6b-1">
          <mxGeometry width="50" height="50" relative="1" as="geometry">
            <mxPoint x="510" y="237" as="sourcePoint" />
            <mxPoint x="580" y="-1186.9999999999998" as="targetPoint" />
            <Array as="points">
              <mxPoint x="510" y="-47" />
              <mxPoint x="580" y="-47" />
            </Array>
          </mxGeometry>
        </mxCell>
        <mxCell id="c8FWh5oYKYjR5jXUoeio-1" value="Тотализатор" style="swimlane;whiteSpace=wrap;html=1;strokeColor=none;swimlaneLine=0;fillColor=#F5F5F5;gradientColor=none;swimlaneFillColor=#f9f9f9;fontStyle=1;fontColor=#4D4D4D;glass=0;shadow=0;" vertex="1" parent="1">
          <mxGeometry x="90" y="-103" width="460" height="290" as="geometry">
            <mxRectangle x="488" y="-400" width="130" height="26" as="alternateBounds" />
          </mxGeometry>
        </mxCell>
        <mxCell id="CdMtRt8iwdDnhasFc3-f-1" value="Manager" style="rounded=0;whiteSpace=wrap;html=1;" vertex="1" parent="c8FWh5oYKYjR5jXUoeio-1">
          <mxGeometry x="80" y="60" width="120" height="60" as="geometry" />
        </mxCell>
        <mxCell id="CdMtRt8iwdDnhasFc3-f-2" value="Order report" style="rounded=0;whiteSpace=wrap;html=1;strokeColor=#009900;" vertex="1" parent="c8FWh5oYKYjR5jXUoeio-1">
          <mxGeometry x="80" y="200" width="120" height="60" as="geometry" />
        </mxCell>
        <mxCell id="ZAFtB2eiMH9VBlMmgBBs-1" value="bet" style="rounded=0;whiteSpace=wrap;html=1;" vertex="1" parent="c8FWh5oYKYjR5jXUoeio-1">
          <mxGeometry x="300" y="60" width="120" height="60" as="geometry" />
        </mxCell>
        <mxCell id="ZAFtB2eiMH9VBlMmgBBs-2" value="" style="endArrow=classic;html=1;rounded=0;exitX=1;exitY=0.5;exitDx=0;exitDy=0;entryX=0;entryY=0.5;entryDx=0;entryDy=0;" edge="1" parent="c8FWh5oYKYjR5jXUoeio-1" source="CdMtRt8iwdDnhasFc3-f-1" target="ZAFtB2eiMH9VBlMmgBBs-1">
          <mxGeometry relative="1" as="geometry">
            <mxPoint x="240" y="200" as="sourcePoint" />
            <mxPoint x="340" y="200" as="targetPoint" />
          </mxGeometry>
        </mxCell>
        <mxCell id="ZAFtB2eiMH9VBlMmgBBs-3" value="has_many" style="edgeLabel;resizable=0;html=1;;align=center;verticalAlign=middle;" connectable="0" vertex="1" parent="ZAFtB2eiMH9VBlMmgBBs-2">
          <mxGeometry relative="1" as="geometry" />
        </mxCell>
        <mxCell id="a1naB8WjDjrO8UFLV7fx-1" value="Оформление заказа" style="swimlane;whiteSpace=wrap;html=1;strokeColor=none;swimlaneLine=0;fillColor=#F5F5F5;gradientColor=none;swimlaneFillColor=#f9f9f9;fontStyle=1;fontColor=#4D4D4D;glass=0;shadow=0;" vertex="1" parent="1">
          <mxGeometry x="-100" y="-650" width="520" height="390" as="geometry">
            <mxRectangle x="488" y="-400" width="130" height="26" as="alternateBounds" />
          </mxGeometry>
        </mxCell>
        <mxCell id="9ETeZXw-UAkVcv4JfxhN-1" value="Client" style="rounded=0;whiteSpace=wrap;html=1;" vertex="1" parent="a1naB8WjDjrO8UFLV7fx-1">
          <mxGeometry x="130" y="300" width="120" height="60" as="geometry" />
        </mxCell>
        <mxCell id="9ETeZXw-UAkVcv4JfxhN-3" value="Order" style="rounded=0;whiteSpace=wrap;html=1;" vertex="1" parent="a1naB8WjDjrO8UFLV7fx-1">
          <mxGeometry x="130" y="60" width="120" height="60" as="geometry" />
        </mxCell>
        <mxCell id="9ETeZXw-UAkVcv4JfxhN-4" value="" style="endArrow=classic;html=1;rounded=0;" edge="1" parent="a1naB8WjDjrO8UFLV7fx-1" target="9ETeZXw-UAkVcv4JfxhN-3">
          <mxGeometry relative="1" as="geometry">
            <mxPoint x="190" y="300" as="sourcePoint" />
            <mxPoint x="630" y="370" as="targetPoint" />
          </mxGeometry>
        </mxCell>
        <mxCell id="9ETeZXw-UAkVcv4JfxhN-5" value="has_many" style="edgeLabel;resizable=0;html=1;;align=center;verticalAlign=middle;" connectable="0" vertex="1" parent="9ETeZXw-UAkVcv4JfxhN-4">
          <mxGeometry relative="1" as="geometry" />
        </mxCell>
        <mxCell id="9ETeZXw-UAkVcv4JfxhN-2" value="Worker" style="rounded=0;whiteSpace=wrap;html=1;strokeColor=#009900;" vertex="1" parent="a1naB8WjDjrO8UFLV7fx-1">
          <mxGeometry x="340" y="70" width="120" height="60" as="geometry" />
        </mxCell>
        <mxCell id="O2In1i-_r2ZMUgWNV-KY-1" value="Worker features" style="rounded=0;whiteSpace=wrap;html=1;" vertex="1" parent="a1naB8WjDjrO8UFLV7fx-1">
          <mxGeometry x="340" y="230" width="120" height="60" as="geometry" />
        </mxCell>
        <mxCell id="O2In1i-_r2ZMUgWNV-KY-2" value="" style="endArrow=classic;html=1;rounded=0;exitX=0.5;exitY=1;exitDx=0;exitDy=0;" edge="1" parent="a1naB8WjDjrO8UFLV7fx-1" source="9ETeZXw-UAkVcv4JfxhN-2">
          <mxGeometry relative="1" as="geometry">
            <mxPoint x="300" y="420" as="sourcePoint" />
            <mxPoint x="400" y="230" as="targetPoint" />
          </mxGeometry>
        </mxCell>
        <mxCell id="O2In1i-_r2ZMUgWNV-KY-3" value="has_one" style="edgeLabel;resizable=0;html=1;;align=center;verticalAlign=middle;" connectable="0" vertex="1" parent="O2In1i-_r2ZMUgWNV-KY-2">
          <mxGeometry relative="1" as="geometry" />
        </mxCell>
        <mxCell id="O2In1i-_r2ZMUgWNV-KY-4" value="" style="endArrow=classic;html=1;rounded=0;entryX=1;entryY=0.5;entryDx=0;entryDy=0;exitX=0;exitY=0.5;exitDx=0;exitDy=0;" edge="1" parent="a1naB8WjDjrO8UFLV7fx-1" source="9ETeZXw-UAkVcv4JfxhN-2" target="9ETeZXw-UAkVcv4JfxhN-3">
          <mxGeometry relative="1" as="geometry">
            <mxPoint x="380" y="-90" as="sourcePoint" />
            <mxPoint x="1120" y="-720" as="targetPoint" />
            <Array as="points">
              <mxPoint x="290" y="100" />
              <mxPoint x="290" y="90" />
            </Array>
          </mxGeometry>
        </mxCell>
        <mxCell id="O2In1i-_r2ZMUgWNV-KY-5" value="has_many" style="edgeLabel;resizable=0;html=1;;align=center;verticalAlign=middle;" connectable="0" vertex="1" parent="O2In1i-_r2ZMUgWNV-KY-4">
          <mxGeometry relative="1" as="geometry" />
        </mxCell>
        <mxCell id="jn1POS-6JHgobD3Z5nID-1" value="Инвойсы" style="swimlane;whiteSpace=wrap;html=1;strokeColor=none;swimlaneLine=0;fillColor=#F5F5F5;gradientColor=none;swimlaneFillColor=#f9f9f9;fontStyle=1;fontColor=#4D4D4D;glass=0;shadow=0;" vertex="1" parent="1">
          <mxGeometry x="660" y="-210" width="720" height="492" as="geometry">
            <mxRectangle x="488" y="-400" width="130" height="26" as="alternateBounds" />
          </mxGeometry>
        </mxCell>
        <mxCell id="jn1POS-6JHgobD3Z5nID-15" style="edgeStyle=orthogonalEdgeStyle;rounded=0;orthogonalLoop=1;jettySize=auto;html=1;exitX=0;exitY=0;exitDx=120;exitDy=75;exitPerimeter=0;entryX=0;entryY=0.5;entryDx=0;entryDy=0;entryPerimeter=0;" edge="1" parent="jn1POS-6JHgobD3Z5nID-1" source="jn1POS-6JHgobD3Z5nID-14">
          <mxGeometry relative="1" as="geometry">
            <mxPoint x="805" y="400.00000000000045" as="targetPoint" />
          </mxGeometry>
        </mxCell>
        <mxCell id="peIZ9AZQz5-WS4HcqFXS-2" value="Worker invoice" style="rounded=0;whiteSpace=wrap;html=1;" vertex="1" parent="jn1POS-6JHgobD3Z5nID-1">
          <mxGeometry x="47.25" y="320" width="120" height="60" as="geometry" />
        </mxCell>
        <mxCell id="h9fEZSdPFp3Tlz6qpoL--5" value="" style="endArrow=classic;html=1;rounded=0;exitX=0.5;exitY=1;exitDx=0;exitDy=0;" edge="1" parent="jn1POS-6JHgobD3Z5nID-1" source="peIZ9AZQz5-WS4HcqFXS-1">
          <mxGeometry relative="1" as="geometry">
            <mxPoint x="77.25" y="270" as="sourcePoint" />
            <mxPoint x="107.25" y="320" as="targetPoint" />
          </mxGeometry>
        </mxCell>
        <mxCell id="h9fEZSdPFp3Tlz6qpoL--6" value="has_many" style="edgeLabel;resizable=0;html=1;;align=center;verticalAlign=middle;" connectable="0" vertex="1" parent="h9fEZSdPFp3Tlz6qpoL--5">
          <mxGeometry relative="1" as="geometry" />
        </mxCell>
        <mxCell id="peIZ9AZQz5-WS4HcqFXS-1" value="Worker" style="rounded=0;whiteSpace=wrap;html=1;strokeColor=#009900;" vertex="1" parent="jn1POS-6JHgobD3Z5nID-1">
          <mxGeometry x="47.25" y="180" width="120" height="60" as="geometry" />
        </mxCell>
        <mxCell id="h9fEZSdPFp3Tlz6qpoL--1" value="" style="endArrow=classic;html=1;rounded=0;exitX=0.5;exitY=0;exitDx=0;exitDy=0;entryX=0;entryY=0.5;entryDx=0;entryDy=0;" edge="1" parent="jn1POS-6JHgobD3Z5nID-1" source="peIZ9AZQz5-WS4HcqFXS-1" target="peIZ9AZQz5-WS4HcqFXS-5">
          <mxGeometry relative="1" as="geometry">
            <mxPoint x="177.25" y="160" as="sourcePoint" />
            <mxPoint x="277.25" y="160" as="targetPoint" />
            <Array as="points">
              <mxPoint x="107.25" y="100" />
            </Array>
          </mxGeometry>
        </mxCell>
        <mxCell id="h9fEZSdPFp3Tlz6qpoL--2" value="has_many" style="edgeLabel;resizable=0;html=1;;align=center;verticalAlign=middle;" connectable="0" vertex="1" parent="h9fEZSdPFp3Tlz6qpoL--1">
          <mxGeometry relative="1" as="geometry" />
        </mxCell>
        <mxCell id="peIZ9AZQz5-WS4HcqFXS-5" value="Order" style="rounded=0;whiteSpace=wrap;html=1;strokeColor=#009900;" vertex="1" parent="jn1POS-6JHgobD3Z5nID-1">
          <mxGeometry x="167.25" y="70" width="120" height="60" as="geometry" />
        </mxCell>
        <mxCell id="h9fEZSdPFp3Tlz6qpoL--3" value="" style="endArrow=classic;html=1;rounded=0;entryX=1;entryY=0.5;entryDx=0;entryDy=0;" edge="1" parent="jn1POS-6JHgobD3Z5nID-1" target="peIZ9AZQz5-WS4HcqFXS-5">
          <mxGeometry relative="1" as="geometry">
            <mxPoint x="347.25" y="180" as="sourcePoint" />
            <mxPoint x="277.25" y="160" as="targetPoint" />
            <Array as="points">
              <mxPoint x="347.25" y="100" />
            </Array>
          </mxGeometry>
        </mxCell>
        <mxCell id="h9fEZSdPFp3Tlz6qpoL--4" value="has_many" style="edgeLabel;resizable=0;html=1;;align=center;verticalAlign=middle;" connectable="0" vertex="1" parent="h9fEZSdPFp3Tlz6qpoL--3">
          <mxGeometry relative="1" as="geometry" />
        </mxCell>
        <mxCell id="peIZ9AZQz5-WS4HcqFXS-3" value="Client" style="rounded=0;whiteSpace=wrap;html=1;" vertex="1" parent="jn1POS-6JHgobD3Z5nID-1">
          <mxGeometry x="287.25" y="180" width="120" height="60" as="geometry" />
        </mxCell>
        <mxCell id="h9fEZSdPFp3Tlz6qpoL--7" value="" style="endArrow=classic;html=1;rounded=0;exitX=0.5;exitY=1;exitDx=0;exitDy=0;" edge="1" parent="jn1POS-6JHgobD3Z5nID-1" source="peIZ9AZQz5-WS4HcqFXS-3">
          <mxGeometry relative="1" as="geometry">
            <mxPoint x="177.25" y="160" as="sourcePoint" />
            <mxPoint x="347.25" y="320" as="targetPoint" />
          </mxGeometry>
        </mxCell>
        <mxCell id="h9fEZSdPFp3Tlz6qpoL--8" value="has_many" style="edgeLabel;resizable=0;html=1;;align=center;verticalAlign=middle;" connectable="0" vertex="1" parent="h9fEZSdPFp3Tlz6qpoL--7">
          <mxGeometry relative="1" as="geometry" />
        </mxCell>
        <mxCell id="peIZ9AZQz5-WS4HcqFXS-4" value="Client invoice" style="rounded=0;whiteSpace=wrap;html=1;" vertex="1" parent="jn1POS-6JHgobD3Z5nID-1">
          <mxGeometry x="287.25" y="320" width="120" height="60" as="geometry" />
        </mxCell>
        <mxCell id="5jRI9dhnK7LnnSULJHRF-21" value="Cash balance" style="rounded=0;whiteSpace=wrap;html=1;" vertex="1" parent="jn1POS-6JHgobD3Z5nID-1">
          <mxGeometry x="47.25" y="414" width="120" height="60" as="geometry" />
        </mxCell>
        <mxCell id="5jRI9dhnK7LnnSULJHRF-22" value="" style="endArrow=classic;html=1;rounded=0;exitX=0;exitY=0.5;exitDx=0;exitDy=0;entryX=0;entryY=0.5;entryDx=0;entryDy=0;" edge="1" parent="jn1POS-6JHgobD3Z5nID-1" source="peIZ9AZQz5-WS4HcqFXS-1" target="5jRI9dhnK7LnnSULJHRF-21">
          <mxGeometry relative="1" as="geometry">
            <mxPoint x="-150" y="287" as="sourcePoint" />
            <mxPoint x="-50" y="287" as="targetPoint" />
            <Array as="points">
              <mxPoint x="10" y="210" />
              <mxPoint x="10" y="444" />
            </Array>
          </mxGeometry>
        </mxCell>
        <mxCell id="5jRI9dhnK7LnnSULJHRF-23" value="has_one" style="edgeLabel;resizable=0;html=1;;align=center;verticalAlign=middle;" connectable="0" vertex="1" parent="5jRI9dhnK7LnnSULJHRF-22">
          <mxGeometry relative="1" as="geometry" />
        </mxCell>
        <mxCell id="Ehr9GQgyml7XGzt6fKWF-1" value="Сбор заказа для воркера" style="swimlane;whiteSpace=wrap;html=1;strokeColor=none;swimlaneLine=0;fillColor=#F5F5F5;gradientColor=none;swimlaneFillColor=#f9f9f9;fontStyle=1;fontColor=#4D4D4D;glass=0;shadow=0;" vertex="1" parent="1">
          <mxGeometry x="620" y="-810" width="400" height="290" as="geometry">
            <mxRectangle x="488" y="-400" width="130" height="26" as="alternateBounds" />
          </mxGeometry>
        </mxCell>
        <mxCell id="MVrHE5RjtUz58FwMEPir-1" value="Order" style="rounded=0;whiteSpace=wrap;html=1;strokeColor=#009900;" vertex="1" parent="Ehr9GQgyml7XGzt6fKWF-1">
          <mxGeometry x="40" y="80" width="120" height="60" as="geometry" />
        </mxCell>
        <mxCell id="MVrHE5RjtUz58FwMEPir-2" value="Warehouse worker" style="rounded=0;whiteSpace=wrap;html=1;" vertex="1" parent="Ehr9GQgyml7XGzt6fKWF-1">
          <mxGeometry x="40" y="180" width="120" height="60" as="geometry" />
        </mxCell>
        <mxCell id="5jRI9dhnK7LnnSULJHRF-1" value="Order equipment" style="rounded=0;whiteSpace=wrap;html=1;" vertex="1" parent="Ehr9GQgyml7XGzt6fKWF-1">
          <mxGeometry x="240" y="80" width="120" height="60" as="geometry" />
        </mxCell>
        <mxCell id="5jRI9dhnK7LnnSULJHRF-2" value="" style="endArrow=classic;html=1;rounded=0;exitX=1;exitY=0.5;exitDx=0;exitDy=0;entryX=0;entryY=0.5;entryDx=0;entryDy=0;" edge="1" parent="Ehr9GQgyml7XGzt6fKWF-1" source="MVrHE5RjtUz58FwMEPir-1" target="5jRI9dhnK7LnnSULJHRF-1">
          <mxGeometry relative="1" as="geometry">
            <mxPoint x="180" y="270" as="sourcePoint" />
            <mxPoint x="320" y="160" as="targetPoint" />
          </mxGeometry>
        </mxCell>
        <mxCell id="5jRI9dhnK7LnnSULJHRF-3" value="has_many" style="edgeLabel;resizable=0;html=1;;align=center;verticalAlign=middle;" connectable="0" vertex="1" parent="5jRI9dhnK7LnnSULJHRF-2">
          <mxGeometry relative="1" as="geometry" />
        </mxCell>
        <mxCell id="XR1-DUJM9LYJW8IYbego-2" value="Order report" style="rounded=0;whiteSpace=wrap;html=1;strokeColor=#009900;" vertex="1" parent="1">
          <mxGeometry x="-300" y="-1280" width="120" height="60" as="geometry" />
        </mxCell>
        <mxCell id="XR1-DUJM9LYJW8IYbego-3" value="" style="endArrow=classic;html=1;rounded=0;" edge="1" parent="1">
          <mxGeometry relative="1" as="geometry">
            <mxPoint x="-370" y="-1250" as="sourcePoint" />
            <mxPoint x="-300" y="-1250" as="targetPoint" />
          </mxGeometry>
        </mxCell>
        <mxCell id="XR1-DUJM9LYJW8IYbego-4" value="has_one" style="edgeLabel;resizable=0;html=1;;align=center;verticalAlign=middle;" connectable="0" vertex="1" parent="XR1-DUJM9LYJW8IYbego-3">
          <mxGeometry relative="1" as="geometry" />
        </mxCell>
        <mxCell id="5jRI9dhnK7LnnSULJHRF-5" value="Name" style="rounded=0;whiteSpace=wrap;html=1;" vertex="1" parent="1">
          <mxGeometry x="-1110" y="-680" width="120" height="60" as="geometry" />
        </mxCell>
        <mxCell id="5jRI9dhnK7LnnSULJHRF-7" value="Legend" style="text;html=1;align=center;verticalAlign=middle;whiteSpace=wrap;rounded=0;" vertex="1" parent="1">
          <mxGeometry x="-990" y="-730" width="60" height="30" as="geometry" />
        </mxCell>
        <mxCell id="5jRI9dhnK7LnnSULJHRF-8" value="Master data (producer)" style="text;html=1;align=center;verticalAlign=middle;whiteSpace=wrap;rounded=0;" vertex="1" parent="1">
          <mxGeometry x="-960" y="-665" width="160" height="30" as="geometry" />
        </mxCell>
        <mxCell id="5jRI9dhnK7LnnSULJHRF-9" value="Name" style="rounded=0;whiteSpace=wrap;html=1;strokeColor=#00CC00;" vertex="1" parent="1">
          <mxGeometry x="-1110" y="-600" width="120" height="60" as="geometry" />
        </mxCell>
        <mxCell id="5jRI9dhnK7LnnSULJHRF-10" value="Read data (consumer)" style="text;html=1;align=center;verticalAlign=middle;whiteSpace=wrap;rounded=0;" vertex="1" parent="1">
          <mxGeometry x="-950" y="-585" width="140" height="30" as="geometry" />
        </mxCell>
        <mxCell id="5jRI9dhnK7LnnSULJHRF-16" value="" style="endArrow=classic;html=1;rounded=0;curved=0;strokeColor=#009900;fillColor=#d5e8d4;strokeWidth=4;" edge="1" parent="1">
          <mxGeometry width="50" height="50" relative="1" as="geometry">
            <mxPoint x="-1080" y="-470" as="sourcePoint" />
            <mxPoint x="-1025" y="-520" as="targetPoint" />
            <Array as="points">
              <mxPoint x="-1060" y="-490" />
            </Array>
          </mxGeometry>
        </mxCell>
        <mxCell id="5jRI9dhnK7LnnSULJHRF-18" value="Streaming communication" style="text;html=1;align=center;verticalAlign=middle;whiteSpace=wrap;rounded=0;" vertex="1" parent="1">
          <mxGeometry x="-960" y="-520" width="160" height="30" as="geometry" />
        </mxCell>
        <mxCell id="5jRI9dhnK7LnnSULJHRF-20" value="" style="endArrow=classic;html=1;rounded=0;curved=0;strokeColor=#009900;fillColor=#d5e8d4;strokeWidth=4;exitX=0.25;exitY=0;exitDx=0;exitDy=0;entryX=0;entryY=0.5;entryDx=0;entryDy=0;" edge="1" parent="1" source="gppDMxM_G1S0D-E3RuNu-1" target="evIq3MUAaSziRxwsS2SR-1">
          <mxGeometry width="50" height="50" relative="1" as="geometry">
            <mxPoint x="-1150" y="-1050" as="sourcePoint" />
            <mxPoint x="-960" y="-830" as="targetPoint" />
            <Array as="points">
              <mxPoint x="-960" y="-1550" />
              <mxPoint x="-40" y="-1540" />
              <mxPoint x="-40" y="-1230" />
            </Array>
          </mxGeometry>
        </mxCell>
        <mxCell id="5jRI9dhnK7LnnSULJHRF-26" value="" style="endArrow=classic;html=1;rounded=0;curved=0;strokeColor=#009900;fillColor=#d5e8d4;strokeWidth=4;entryX=1;entryY=1;entryDx=0;entryDy=0;exitX=0;exitY=0.5;exitDx=0;exitDy=0;" edge="1" parent="1" source="9ETeZXw-UAkVcv4JfxhN-3" target="dqWx0Q5ol9Fa4tBbzWb_-1">
          <mxGeometry width="50" height="50" relative="1" as="geometry">
            <mxPoint x="-380" y="-550" as="sourcePoint" />
            <mxPoint x="-330" y="-600" as="targetPoint" />
            <Array as="points">
              <mxPoint x="-370" y="-560" />
            </Array>
          </mxGeometry>
        </mxCell>
        <mxCell id="5jRI9dhnK7LnnSULJHRF-28" value="" style="endArrow=classic;html=1;rounded=0;curved=0;strokeColor=#009900;fillColor=#d5e8d4;strokeWidth=4;exitX=0;exitY=1;exitDx=0;exitDy=0;entryX=1;entryY=0.5;entryDx=0;entryDy=0;" edge="1" parent="1" source="y9bbH5Bnu4w_57hg5uab-1" target="EyRjng0x0nRohxVUiB7G-1">
          <mxGeometry width="50" height="50" relative="1" as="geometry">
            <mxPoint x="-30" y="-710" as="sourcePoint" />
            <mxPoint x="-110" y="-910" as="targetPoint" />
            <Array as="points">
              <mxPoint x="340" y="-1000" />
            </Array>
          </mxGeometry>
        </mxCell>
        <mxCell id="5jRI9dhnK7LnnSULJHRF-29" value="" style="endArrow=classic;html=1;rounded=0;curved=0;strokeColor=#009900;fillColor=#d5e8d4;strokeWidth=4;exitX=0.25;exitY=1;exitDx=0;exitDy=0;" edge="1" parent="1" source="y9bbH5Bnu4w_57hg5uab-1">
          <mxGeometry width="50" height="50" relative="1" as="geometry">
            <mxPoint x="130" y="-850" as="sourcePoint" />
            <mxPoint x="280" y="-590" as="targetPoint" />
            <Array as="points">
              <mxPoint x="370" y="-920" />
              <mxPoint x="280" y="-920" />
            </Array>
          </mxGeometry>
        </mxCell>
        <mxCell id="5jRI9dhnK7LnnSULJHRF-31" value="" style="endArrow=classic;html=1;rounded=0;curved=0;strokeColor=#009900;fillColor=#d5e8d4;strokeWidth=4;exitX=0.5;exitY=1;exitDx=0;exitDy=0;entryX=0.25;entryY=0;entryDx=0;entryDy=0;" edge="1" parent="1" source="y9bbH5Bnu4w_57hg5uab-1" target="E50k8dbaBVPxqtLRVtDK-1">
          <mxGeometry width="50" height="50" relative="1" as="geometry">
            <mxPoint x="420" y="-710" as="sourcePoint" />
            <mxPoint x="-50" y="-160" as="targetPoint" />
            <Array as="points">
              <mxPoint x="400" y="-160" />
              <mxPoint x="-740" y="-160" />
            </Array>
          </mxGeometry>
        </mxCell>
        <mxCell id="5jRI9dhnK7LnnSULJHRF-32" value="" style="endArrow=classic;html=1;rounded=0;curved=0;strokeColor=#009900;fillColor=#d5e8d4;strokeWidth=4;exitX=0.75;exitY=1;exitDx=0;exitDy=0;" edge="1" parent="1" source="y9bbH5Bnu4w_57hg5uab-1">
          <mxGeometry width="50" height="50" relative="1" as="geometry">
            <mxPoint x="430" y="-960" as="sourcePoint" />
            <mxPoint x="720" y="-30" as="targetPoint" />
            <Array as="points">
              <mxPoint x="440" y="-240" />
              <mxPoint x="720" y="-240" />
            </Array>
          </mxGeometry>
        </mxCell>
        <mxCell id="5jRI9dhnK7LnnSULJHRF-33" value="" style="endArrow=classic;html=1;rounded=0;curved=0;strokeColor=#009900;fillColor=#d5e8d4;strokeWidth=4;entryX=0;entryY=0.25;entryDx=0;entryDy=0;" edge="1" parent="1" target="MVrHE5RjtUz58FwMEPir-1">
          <mxGeometry width="50" height="50" relative="1" as="geometry">
            <mxPoint x="90" y="-590" as="sourcePoint" />
            <mxPoint x="105" y="-810" as="targetPoint" />
            <Array as="points">
              <mxPoint x="90" y="-710" />
            </Array>
          </mxGeometry>
        </mxCell>
        <mxCell id="5jRI9dhnK7LnnSULJHRF-34" value="" style="endArrow=classic;html=1;rounded=0;curved=0;strokeColor=#009900;fillColor=#d5e8d4;strokeWidth=4;exitX=0.846;exitY=1.017;exitDx=0;exitDy=0;exitPerimeter=0;entryX=0.5;entryY=0;entryDx=0;entryDy=0;" edge="1" parent="1" source="9ETeZXw-UAkVcv4JfxhN-3" target="peIZ9AZQz5-WS4HcqFXS-5">
          <mxGeometry width="50" height="50" relative="1" as="geometry">
            <mxPoint x="550" y="-420" as="sourcePoint" />
            <mxPoint x="605" y="-470" as="targetPoint" />
            <Array as="points">
              <mxPoint x="132" y="-440" />
              <mxPoint x="887" y="-440" />
            </Array>
          </mxGeometry>
        </mxCell>
        <mxCell id="DLa2L1sqV9SvlCsvGByb-1" value="" style="endArrow=classic;html=1;rounded=0;curved=0;strokeColor=#009900;fillColor=#d5e8d4;strokeWidth=4;exitX=1;exitY=0.5;exitDx=0;exitDy=0;entryX=0.5;entryY=1;entryDx=0;entryDy=0;" edge="1" parent="1" source="XR1-DUJM9LYJW8IYbego-1" target="CdMtRt8iwdDnhasFc3-f-2">
          <mxGeometry width="50" height="50" relative="1" as="geometry">
            <mxPoint x="-70" y="202" as="sourcePoint" />
            <mxPoint x="-15" y="152" as="targetPoint" />
            <Array as="points">
              <mxPoint x="230" y="240" />
            </Array>
          </mxGeometry>
        </mxCell>
      </root>
    </mxGraphModel>
  </diagram>
  <diagram id="tyfZUOYxRV9jgNaLn7S1" name="Communication">
    <mxGraphModel dx="1026" dy="772" grid="1" gridSize="10" guides="1" tooltips="1" connect="1" arrows="1" fold="1" page="1" pageScale="1" pageWidth="1169" pageHeight="827" math="0" shadow="0">
      <root>
        <mxCell id="0" />
        <mxCell id="1" parent="0" />
      </root>
    </mxGraphModel>
  </diagram>
</mxfile>
